<svg width="81" height="81" viewBox="0 0 81 81" fill="none" xmlns="http://www.w3.org/2000/svg">
<g clip-path="url(#clip0)">
<path d="M49.1346 38.0814C52.7634 35.2147 55.095 30.7871 55.095 25.8271C55.095 17.2051 48.0507 10.1905 39.3919 10.1905C30.7332 10.1905 23.6887 17.2051 23.6887 25.8271C23.6887 26.3922 23.7197 26.9504 23.7787 27.5001C21.9939 26.5254 19.9469 25.97 17.7716 25.97C10.8592 25.97 5.23573 31.5709 5.23573 38.4552C5.23573 42.0445 6.76651 45.2826 9.20932 47.5623C3.79292 49.9405 0 55.3548 0 61.6393V76.1579C0 78.8279 2.17213 81 4.84212 81H22.4329H24.0149H56.3507C59.4451 81 61.9625 78.4827 61.9625 75.3882V56.3452C61.9625 47.9511 56.6075 40.7849 49.1346 38.0814V38.0814ZM39.3919 14.9366C45.4337 14.9366 50.3489 19.8221 50.3489 25.8271C50.3489 31.8322 45.4337 36.7177 39.3919 36.7177C33.3502 36.7177 28.4348 31.8322 28.4348 25.8271C28.4348 19.8221 33.3502 14.9366 39.3919 14.9366V14.9366ZM17.7716 30.7161C22.067 30.7161 25.5615 34.1878 25.5615 38.4552C25.5615 39.0741 25.4868 39.6883 25.3422 40.2826C23.1598 41.7675 21.2943 43.6848 19.8702 45.9107C19.191 46.099 18.4878 46.1945 17.7716 46.1945C13.4764 46.1945 9.98183 42.7228 9.98183 38.4552C9.98183 34.188 13.4764 30.7161 17.7716 30.7161V30.7161ZM4.74609 76.1579V61.6393C4.74609 55.7835 9.51006 51.0196 15.3658 51.0196H17.564C17.0804 52.7125 16.8213 54.4991 16.8213 56.3452V75.3882C16.8213 75.6826 16.8444 75.9717 16.8882 76.2539H4.84212C4.79466 76.2539 4.74609 76.2053 4.74609 76.1579V76.1579ZM57.2164 75.3882C57.2164 75.8575 56.8199 76.2539 56.3507 76.2539H24.0151H22.433C21.9638 76.2539 21.5674 75.8575 21.5674 75.3882V56.3452C21.5674 48.2567 28.1478 41.6762 36.2363 41.6762H42.5475C50.6359 41.6762 57.2164 48.2567 57.2164 56.3452V75.3882Z" fill="white"/>
<path d="M78.8051 6.70117H74.4433V2.37305C74.4433 1.06249 73.3808 0 72.0703 0C70.7597 0 69.6972 1.06249 69.6972 2.37305V6.70117H65.3356C64.025 6.70117 62.9625 7.76366 62.9625 9.07422C62.9625 10.3848 64.025 11.4473 65.3356 11.4473H69.6972V15.7755C69.6972 17.0861 70.7597 18.1486 72.0703 18.1486C73.3808 18.1486 74.4433 17.0861 74.4433 15.7755V11.4473H78.8051C80.1157 11.4473 81.1782 10.3848 81.1782 9.07422C81.1782 7.76366 80.1157 6.70117 78.8051 6.70117V6.70117Z" fill="white"/>
</g>
<defs>
<clipPath id="clip0">
<rect width="81" height="81" fill="white"/>
</clipPath>
</defs>
</svg>
