<svg width="64" height="71" viewBox="0 0 64 71" fill="none" xmlns="http://www.w3.org/2000/svg">
<path d="M40 47C40 45 38.3333 44.5 37.5 44.5H27C26.1667 44.5 24.5 45 24.5 47V65C24.5 65.8333 24 67.5 22 67.5H5.5C4.66667 67.6667 3 67.4 3 65V28.5C3 27.5 3.5 25.1 5.5 23.5C7.5 21.9 23.3333 9.49999 31 3.49999C31.5 3.16665 32.6999 2.69997 33.5 3.49999C35.5304 5.06115 57 21.9 59 23.5C61 25.1 61.5 27.5 61.5 28.5V65C61.5 67.4 59.8333 67.6667 59 67.5H42.5C40.5 67.5 40 65.8333 40 65V47Z" stroke="white" stroke-width="5"/>
</svg>
